<svg width="35" height="26" viewBox="0 0 35 26" fill="none" xmlns="http://www.w3.org/2000/svg">
<path d="M25.3564 25.5182C25.3564 25.5182 24.2907 24.237 23.4059 23.1186C27.2667 22.0204 28.7346 19.5802 28.7346 19.5802C27.5281 20.3733 26.3819 20.9427 25.3564 21.329C23.8885 21.9594 22.4809 22.3662 21.0935 22.6102C18.2783 23.1389 15.6844 22.9966 13.4725 22.5898C11.8035 22.2645 10.3557 21.7968 9.14921 21.3087C8.46554 21.0443 7.74164 20.719 6.99764 20.2919C6.91721 20.2309 6.81667 20.2106 6.73623 20.1496C6.67591 20.1292 6.6558 20.0886 6.61558 20.0682C6.09277 19.7632 5.79115 19.5598 5.79115 19.5598C5.79115 19.5598 7.19872 21.9391 10.9388 23.0779C10.0541 24.2167 8.96824 25.5385 8.96824 25.5385C2.4733 25.3148 0 20.9833 0 20.9833C0 11.4052 4.24282 3.63695 4.24282 3.63695C8.46554 0.444239 12.5073 0.525582 12.5073 0.525582L12.8089 0.891625C7.50034 2.43714 5.06726 4.77575 5.06726 4.77575C5.06726 4.77575 5.71072 4.40971 6.79656 3.92165C9.93343 2.51848 12.4469 2.1321 13.4725 2.05076C13.6534 2.03043 13.7942 1.98975 13.9752 1.98975C15.7648 1.74573 17.7957 1.68472 19.9071 1.92875C22.7021 2.25412 25.6982 3.08788 28.7547 4.77575C28.7547 4.77575 26.4221 2.53882 21.4353 0.993304L21.8375 0.525582C21.8375 0.525582 25.8591 0.444239 30.1019 3.65728C30.1019 3.65728 34.3447 11.4255 34.3447 21.0037C34.3648 20.9833 31.8513 25.3148 25.3564 25.5182ZM11.6828 11.6289C10.0139 11.6289 8.68672 13.1134 8.68672 14.9233C8.68672 16.7332 10.034 18.2177 11.6828 18.2177C13.3518 18.2177 14.679 16.7332 14.679 14.9233C14.6991 13.1134 13.3518 11.6289 11.6828 11.6289ZM22.4206 11.6289C20.7516 11.6289 19.4245 13.1134 19.4245 14.9233C19.4245 16.7332 20.7717 18.2177 22.4206 18.2177C24.0896 18.2177 25.4167 16.7332 25.4167 14.9233C25.4167 13.1134 24.0896 11.6289 22.4206 11.6289Z" fill="black"/>
</svg>
