<svg width="512" height="512" viewBox="0 0 512 512" fill="none" xmlns="http://www.w3.org/2000/svg">
<g clip-path="url(#clip0_15_583)">
<path d="M65.1272 244.397L101.168 70.0568H259.531L289.566 244.397H65.1272Z" fill="#64DBFA"/>
<path fill-rule="evenodd" clip-rule="evenodd" d="M289.401 219.275L263.71 57.9508H95.3531L62.5563 242.071V382.938H305.253L476.889 327.41V280.649L289.401 219.275ZM254.418 78.4086H103.552L79.5013 221.029H128.833V131.014H132.201C143.247 131.014 152.201 139.969 152.201 151.014V179.337C152.201 189.45 160.399 197.649 170.512 197.649C180.626 197.649 188.824 205.847 188.824 215.96V221.029H244.579L232.553 197.649L219.981 207.585L217.248 203.494L247.858 178.944L250.591 183.036L239.044 192.972L254.828 221.029H276.829L254.418 78.4086Z" fill="#4E4789"/>
<path d="M297.672 299.505H476.931V289.6L333.196 282.608L284.556 192.296L297.672 299.505Z" fill="#2A2175"/>
<g opacity="0.5">
<path d="M253.495 220.35L232.713 79.0743H198.715L201.296 220.35H253.495Z" fill="#BAF1FF" style="mix-blend-mode:hard-light"/>
<path d="M189.509 220.35L189.453 79.0743H179.35L179.406 220.35H189.509Z" fill="#BAF1FF" style="mix-blend-mode:hard-light"/>
</g>
<ellipse cx="146.286" cy="332.57" rx="117.229" ry="113.221" fill="#2A2175"/>
<path d="M483.945 402.706H75.1467L144.648 352.486H271.063L302.257 307.521H397.479H483.945V402.706Z" fill="#B80DC6"/>
<mask id="mask0_15_583" style="mask-type:alpha" maskUnits="userSpaceOnUse" x="75" y="306" width="409" height="97">
<path d="M483.995 402.227H75.6752L145.095 351.959H271.363L302.52 306.952H397.63H483.995V402.227Z" fill="#B80DC6"/>
</mask>
<g mask="url(#mask0_15_583)">
<path d="M447.983 313.381V367.156H487.34V305.198H315.703L447.983 313.381Z" fill="#CE00DF"/>
</g>
<path d="M483.945 401.704C483.945 401.704 478.635 401.704 452.096 401.704C417.67 401.704 389.761 401.704 389.761 401.704C389.761 369.056 417.67 342.589 452.096 342.589C463.223 342.589 474.903 345.354 483.945 350.198V401.704Z" fill="#9E0BAA"/>
<path d="M194.38 361.829L222.154 352.486H271.682L302.931 307.521H308.414L271.682 361.829H255.599C255.599 361.829 254.343 367.606 253.59 370.588C251.377 379.348 247.559 386.939 247.559 386.939H478.368L484.947 402.706H194.38V361.829Z" fill="#9E0BAA"/>
<path d="M301.594 293.493H484.947L466.879 252.966L284.556 191.294L301.594 293.493Z" fill="#EA34F8"/>
<mask id="mask1_15_583" style="mask-type:alpha" maskUnits="userSpaceOnUse" x="284" y="191" width="201" height="103">
<path d="M300.944 293.508H484.542L466.504 253.177L284.481 191.803L300.944 293.508Z" fill="#EA34F8"/>
</mask>
<g mask="url(#mask1_15_583)">
<path d="M439.72 269.543L263.71 187.127L471.97 235.642L503.673 301.107H447.919L439.72 269.543Z" fill="#F576FF"/>
</g>
<path d="M100.615 69.2156L66.214 261.43H59.1155L96.2462 54.0254H263.334L265.519 69.2156H100.615Z" fill="#2A2175"/>
<ellipse cx="139.984" cy="336.656" rx="117.731" ry="117.438" fill="#716BAC"/>
<ellipse cx="124.919" cy="343.892" rx="120.521" ry="120.221" fill="#4E4789"/>
<mask id="mask2_15_583" style="mask-type:alpha" maskUnits="userSpaceOnUse" x="4" y="223" width="242" height="242">
<ellipse cx="124.919" cy="343.892" rx="120.521" ry="120.221" fill="#4E4789"/>
</mask>
<g mask="url(#mask2_15_583)">
<path fill-rule="evenodd" clip-rule="evenodd" d="M132.665 241.481C89.5988 241.481 54.5904 261.717 38.4339 298.809L28.4564 302.705C12.3413 262.631 76.7149 210.313 132.665 210.313C188.614 210.313 236.647 243.976 257.583 292.042L243.254 298.252L221.513 302.705C205.357 265.613 175.73 241.481 132.665 241.481Z" fill="#2A2175"/>
</g>
<path fill-rule="evenodd" clip-rule="evenodd" d="M124.919 239.255C81.8532 239.255 44.8144 265.145 28.6579 302.236L0 289.816C20.9367 241.75 68.9692 208.087 124.919 208.087C180.868 208.087 228.901 241.75 249.838 289.816L221.18 302.236C205.023 265.145 167.985 239.255 124.919 239.255Z" fill="#EA34F8"/>
<mask id="mask3_15_583" style="mask-type:alpha" maskUnits="userSpaceOnUse" x="66" y="201" width="197" height="98">
<path d="M66.3322 221.445C173.462 188.05 230.189 258.735 243.766 298.252L262.737 278.772C186.407 176.362 99.9962 197.883 66.3322 221.445Z" fill="#F576FF"/>
</mask>
<g mask="url(#mask3_15_583)">
<path fill-rule="evenodd" clip-rule="evenodd" d="M124.919 239.255C81.8532 239.255 44.8144 265.145 28.6579 302.236L0 289.816C20.9367 241.75 68.9692 208.087 124.919 208.087C180.868 208.087 228.901 241.75 249.838 289.816L221.18 302.236C205.023 265.145 167.985 239.255 124.919 239.255Z" fill="#F576FF"/>
</g>
<ellipse cx="124.919" cy="343.892" rx="63.6083" ry="63.4498" fill="#10B1DC"/>
<mask id="mask4_15_583" style="mask-type:alpha" maskUnits="userSpaceOnUse" x="61" y="280" width="128" height="128">
<ellipse cx="124.919" cy="343.892" rx="63.6083" ry="63.4498" fill="#1692B3"/>
</mask>
<g mask="url(#mask4_15_583)">
<ellipse cx="128.825" cy="350.014" rx="61.9344" ry="61.7801" fill="#64DBFA"/>
</g>
<ellipse cx="124.919" cy="343.892" rx="21.2028" ry="21.1499" fill="#9E0BAA"/>
<mask id="mask5_15_583" style="mask-type:alpha" maskUnits="userSpaceOnUse" x="104" y="323" width="43" height="43">
<ellipse cx="125.477" cy="344.448" rx="20.6448" ry="20.5934" fill="#EA34F8"/>
</mask>
<g mask="url(#mask5_15_583)">
<ellipse cx="128.267" cy="349.458" rx="21.2028" ry="21.1499" fill="#EA34F8"/>
</g>
<ellipse cx="455.645" cy="399.549" rx="56.3547" ry="56.2143" fill="#716BAC"/>
<ellipse cx="451.181" cy="402.888" rx="56.3547" ry="56.2143" fill="#4E4789"/>
<ellipse cx="451.181" cy="401.775" rx="37.3838" ry="37.2907" fill="#10B1DC"/>
<mask id="mask6_15_583" style="mask-type:alpha" maskUnits="userSpaceOnUse" x="413" y="364" width="76" height="76">
<ellipse cx="451.181" cy="401.775" rx="37.3838" ry="37.2907" fill="#1692B3"/>
</mask>
<g mask="url(#mask6_15_583)">
<ellipse cx="455.513" cy="406.291" rx="36.4001" ry="36.3093" fill="#64DBFA"/>
</g>
<ellipse cx="451.181" cy="401.775" rx="12.4613" ry="12.4302" fill="#9E0BAA"/>
<mask id="mask7_15_583" style="mask-type:alpha" maskUnits="userSpaceOnUse" x="439" y="390" width="25" height="25">
<ellipse cx="451.663" cy="402.19" rx="12.1334" ry="12.1031" fill="#EA34F8"/>
</mask>
<g mask="url(#mask7_15_583)">
<ellipse cx="454.027" cy="404.353" rx="12.4613" ry="12.4302" fill="#EA34F8"/>
</g>
<rect x="84.9674" y="41" width="184.755" height="22.2114" fill="#EA34F8"/>
<rect x="85.032" y="58.5353" width="184.755" height="4.67608" fill="#9E0BAA"/>
<rect x="85.032" y="41" width="184.755" height="4.67608" fill="#F576FF"/>
</g>
<defs>
<clipPath id="clip0_15_583">
<rect width="512" height="512" fill="white"/>
</clipPath>
</defs>
</svg>
