<svg width="512" height="512" viewBox="0 0 512 512" fill="none" xmlns="http://www.w3.org/2000/svg">
<rect x="11.9866" y="83" width="488.027" height="337.338" fill="#10B1DC"/>
<rect x="21.4048" y="94.9866" width="470.047" height="320.214" fill="#64DBFA"/>
<rect x="39" y="114" width="434" height="282" fill="#4E4789"/>
<path d="M220 114H473V149.5L316.5 402.5L38.5 397L220 114Z" fill="#2A2175"/>
<rect y="395.508" width="512" height="34.2475" fill="#10B1DC"/>
<rect x="5.13715" y="397.221" width="501.726" height="23.1171" fill="#64DBFA"/>
<rect x="5.13715" y="397.221" width="501.726" height="7.70569" fill="#BAF1FF"/>
<path d="M253.643 168.76V276.152L173.814 323.855L253.643 168.76Z" fill="#B41870"/>
<path d="M258.365 168.76V276.152L338.194 323.855L258.365 168.76Z" fill="#00CAB2"/>
<path d="M255.769 280.799L176.885 328.013H334.889L255.769 280.799Z" fill="#5D32ED"/>
<rect x="369.873" y="373.247" width="82.194" height="22.2609" rx="4" fill="white"/>
<path opacity="0.2" d="M369.873 388.659H452.067V391.508C452.067 393.718 450.276 395.508 448.067 395.508H373.873C371.664 395.508 369.873 393.718 369.873 391.508V388.659Z" fill="#4E4789"/>
</svg>