<svg width="30" height="30" viewBox="0 0 30 30" fill="none" xmlns="http://www.w3.org/2000/svg">
<path fill-rule="evenodd" clip-rule="evenodd" d="M0 0H30V30H0V0ZM6.90504 9.37476C7.08978 9.54127 7.18412 9.7858 7.15908 10.0332V18.9409C7.2139 19.2622 7.11261 19.5905 6.88623 19.8251L4.76923 22.393V22.7316H10.7721V22.393L8.6551 19.8251C8.42706 19.5909 8.31949 19.2648 8.36342 18.9409V11.2372L13.6324 22.7316H14.244L18.7697 11.2372V20.3989C18.7697 20.6434 18.7697 20.6905 18.6097 20.8504L16.982 22.4306V22.7692H24.8854V22.4306L23.3142 20.888C23.1754 20.7823 23.1066 20.6085 23.1354 20.4365V9.10198C23.1066 8.92999 23.1754 8.75621 23.3142 8.65048L24.9231 7.10786V6.76923H19.353L15.3825 16.674L10.8662 6.76923H5.02327V7.10786L6.90504 9.37476Z" fill="black"/>
</svg>