<svg width="64" height="64" viewBox="0 0 64 64" fill="none" xmlns="http://www.w3.org/2000/svg">
<path d="M32 64C49.6731 64 64 49.6731 64 32C64 14.3269 49.6731 0 32 0C14.3269 0 0 14.3269 0 32C0 49.6731 14.3269 64 32 64Z" fill="#FF4500"/>
<path d="M53.3441 32.0001C53.3505 32.4385 53.2961 32.8761 53.1809 33.2993C53.0657 33.7225 52.8913 34.1281 52.6625 34.5025C52.4345 34.8769 52.1545 35.2177 51.8313 35.5145C51.5081 35.8113 51.1449 36.0609 50.7521 36.2561C50.7609 36.3729 50.7681 36.4905 50.7721 36.6081C50.7817 36.8427 50.7817 37.0775 50.7721 37.3121C50.7681 37.4297 50.7609 37.5473 50.7521 37.6641C50.7521 44.8321 42.4001 50.6561 32.0961 50.6561C21.792 50.6561 13.44 44.8321 13.44 37.6641C13.4312 37.5473 13.424 37.4297 13.42 37.3121C13.4104 37.0775 13.4104 36.8427 13.42 36.6081C13.424 36.4905 13.4312 36.3729 13.44 36.2561C12.8246 35.9732 12.278 35.56 11.8381 35.045C11.3981 34.5301 11.0753 33.9257 10.892 33.2737C10.709 32.6214 10.67 31.9371 10.7777 31.2682C10.8855 30.5993 11.1374 29.9619 11.516 29.4001C11.8943 28.8383 12.3902 28.3656 12.9695 28.0147C13.5487 27.6638 14.1974 27.4432 14.8704 27.3681C15.5435 27.2926 16.225 27.3644 16.8677 27.5785C17.5103 27.7927 18.0987 28.1439 18.592 28.6081C19.5079 27.9873 20.4675 27.4336 21.4632 26.9513C22.4592 26.4697 23.4888 26.06 24.544 25.7272C25.5992 25.3944 26.6776 25.1392 27.7696 24.9624C28.8616 24.7856 29.9656 24.6888 31.072 24.672L33.4401 13.568C33.4665 13.4392 33.5185 13.3176 33.5929 13.2088C33.6665 13.1008 33.7617 13.008 33.8713 12.9368C33.9817 12.8656 34.1049 12.8168 34.2345 12.7928C34.3633 12.7696 34.4961 12.772 34.6241 12.8L42.4641 14.368C43.2553 13.0088 44.9161 12.4264 46.3825 12.9928C47.8489 13.5592 48.6873 15.1072 48.3593 16.6448C48.0321 18.1824 46.6353 19.2544 45.0657 19.1736C43.4953 19.0928 42.2161 17.8832 42.0481 16.32L35.2001 14.88L33.1201 24.864C34.2129 24.8872 35.3033 24.9896 36.3817 25.1696C38.5412 25.5296 40.6375 26.1995 42.6057 27.1585C43.5887 27.6369 44.5359 28.1855 45.4401 28.8001C46.0902 28.1759 46.9071 27.7533 47.7921 27.5833C48.6771 27.4126 49.5926 27.5018 50.4281 27.8401C51.2637 28.1781 51.9835 28.7508 52.5009 29.4889C53.0184 30.227 53.3113 31.0992 53.3441 32.0001V32.0001ZM21.5872 36.4249C21.7488 36.8129 21.984 37.1657 22.2816 37.4625C22.5784 37.7601 22.9312 37.9953 23.3192 38.1569C23.7076 38.3175 24.1238 38.4001 24.544 38.4001C25.8384 38.4001 27.0048 37.6201 27.5008 36.4249C27.996 35.2289 27.7216 33.8529 26.8064 32.9377C25.8912 32.0225 24.5152 31.7481 23.3192 32.2433C22.124 32.7393 21.344 33.9057 21.344 35.2001C21.344 35.6201 21.4264 36.0361 21.5872 36.4249V36.4249ZM39.9153 44.1065C40.0793 43.9465 40.1729 43.7281 40.1761 43.4993C40.1793 43.2697 40.0905 43.0489 39.9305 42.8849C39.7705 42.7209 39.5521 42.6273 39.3233 42.6241C39.0937 42.6209 38.8729 42.7097 38.6881 42.8481C38.2069 43.1932 37.6973 43.497 37.1649 43.7561C36.6324 44.0154 36.0789 44.2292 35.5105 44.3953C34.9425 44.5609 34.3609 44.6785 33.7729 44.7465C33.1841 44.8145 32.5913 44.8321 32 44.8001C31.4096 44.8265 30.8176 44.8025 30.2312 44.7289C29.6447 44.656 29.0655 44.5329 28.5 44.3609C27.9336 44.1897 27.384 43.9705 26.8552 43.7065C26.3264 43.4425 25.8208 43.1337 25.344 42.7841C25.1784 42.6481 24.968 42.5785 24.7536 42.5889C24.5392 42.5993 24.3368 42.6897 24.1848 42.8409C24.0336 42.9929 23.9432 43.1953 23.9328 43.4097C23.9224 43.6241 23.992 43.8345 24.128 44.0001C24.6904 44.4241 25.288 44.7985 25.9144 45.1201C26.5408 45.4417 27.1944 45.7081 27.8664 45.9177C28.5384 46.1273 29.2272 46.2785 29.9256 46.3705C30.624 46.4617 31.3288 46.4929 32.032 46.4641C32.7353 46.4929 33.4401 46.4617 34.1385 46.3705C35.5373 46.1865 36.8941 45.7636 38.1497 45.1201C38.7761 44.7985 39.3737 44.4241 39.9361 44.0001L39.9153 44.1065ZM39.3281 38.6561C39.7617 38.6609 40.1921 38.5769 40.5929 38.4105C40.9937 38.2433 41.3561 37.9969 41.6585 37.6857C41.9609 37.3745 42.1961 37.0049 42.3513 36.5993C42.5066 36.1942 42.5776 35.7616 42.5601 35.3281C42.5601 34.0337 41.7801 32.8673 40.5849 32.3713C39.3889 31.8761 38.0129 32.1505 37.0977 33.0657C36.1825 33.9809 35.9081 35.3569 36.4033 36.5529C36.8993 37.7481 38.0657 38.5281 39.3601 38.5281L39.3281 38.6561Z" fill="white"/>
</svg>
