<svg width="512" height="512" viewBox="0 0 512 512" fill="none" xmlns="http://www.w3.org/2000/svg">
<path fill-rule="evenodd" clip-rule="evenodd" d="M485.236 210.361C486.783 204.704 483.15 198.941 477.121 197.49L383.182 174.871C377.153 173.419 371.012 176.828 369.465 182.485C367.918 188.142 371.551 193.905 377.58 195.357L471.519 217.975C477.548 219.427 483.689 216.018 485.236 210.361ZM392.992 255.611C395.301 250.188 392.488 244.035 386.708 241.868L316.004 215.36C310.224 213.193 303.667 215.832 301.357 221.256C299.048 226.679 301.861 232.832 307.641 234.999L378.345 261.507C384.125 263.674 390.682 261.035 392.992 255.611Z" fill="#10B1DC"/>
<path fill-rule="evenodd" clip-rule="evenodd" d="M333.709 47.9191C329.409 43.6962 322.275 43.5434 317.775 47.5778L247.65 110.439C243.15 114.474 242.987 121.167 247.286 125.39C251.586 129.613 258.72 129.766 263.22 125.732L333.345 62.8702C337.845 58.8359 338.008 52.142 333.709 47.9191ZM325.877 145.311C322.191 140.605 315.138 139.592 310.122 143.05L248.763 185.35C243.747 188.807 242.668 195.426 246.353 200.133C250.038 204.839 257.092 205.852 262.108 202.394L323.467 160.094C328.483 156.636 329.562 150.018 325.877 145.311Z" fill="#BAF1FF"/>
<mask id="mask0_15_454" style="mask-type:alpha" maskUnits="userSpaceOnUse" x="244" y="44" width="93" height="161">
<path fill-rule="evenodd" clip-rule="evenodd" d="M333.709 47.9191C329.409 43.6962 322.275 43.5434 317.775 47.5778L247.65 110.439C243.15 114.474 242.987 121.167 247.286 125.39C251.586 129.613 258.72 129.766 263.221 125.732L333.345 62.8702C337.845 58.8359 338.008 52.142 333.709 47.9191ZM325.877 145.311C322.191 140.605 315.138 139.592 310.122 143.05L248.763 185.35C243.747 188.807 242.668 195.426 246.353 200.133C250.038 204.839 257.092 205.852 262.108 202.394L323.467 160.094C328.483 156.636 329.562 150.018 325.877 145.311Z" fill="#64DBFA"/>
</mask>
<g mask="url(#mask0_15_454)">
<path fill-rule="evenodd" clip-rule="evenodd" d="M331.195 56.3989C328.69 53.9392 322.276 54.1182 317.775 58.1526L247.651 121.014C243.151 125.048 242.988 131.742 247.287 135.965C251.587 140.188 258.721 140.341 263.221 136.306L328.69 68.7362C333.191 64.7018 335.494 60.6219 331.195 56.3989ZM321.803 153.922C318.047 150.107 312.419 151.052 307.403 154.51L248.763 195.924C243.747 199.382 242.669 206.001 246.354 210.707C250.039 215.414 257.093 216.426 262.109 212.968L317.42 166.847C322.436 163.389 324.934 158.332 321.803 153.922Z" fill="#64DBFA"/>
</g>
<path fill-rule="evenodd" clip-rule="evenodd" d="M177.162 47.9191C181.462 43.6962 188.596 43.5434 193.096 47.5778L263.221 110.439C267.721 114.474 267.884 121.167 263.584 125.39C259.285 129.613 252.151 129.766 247.65 125.732L177.526 62.8702C173.025 58.8359 172.863 52.142 177.162 47.9191ZM184.994 145.311C188.68 140.605 195.733 139.592 200.749 143.05L262.108 185.35C267.124 188.807 268.203 195.426 264.518 200.133C260.832 204.839 253.779 205.852 248.763 202.394L187.404 160.094C182.388 156.636 181.309 150.018 184.994 145.311Z" fill="#BAF1FF"/>
<mask id="mask1_15_454" style="mask-type:alpha" maskUnits="userSpaceOnUse" x="174" y="44" width="93" height="161">
<path fill-rule="evenodd" clip-rule="evenodd" d="M177.162 47.9191C181.462 43.6962 188.596 43.5434 193.096 47.5778L263.22 110.439C267.721 114.474 267.884 121.167 263.584 125.39C259.285 129.613 252.151 129.766 247.65 125.732L177.526 62.8702C173.025 58.8359 172.862 52.142 177.162 47.9191ZM184.994 145.311C188.679 140.605 195.733 139.592 200.749 143.05L262.108 185.35C267.124 188.807 268.203 195.426 264.518 200.133C260.832 204.839 253.779 205.852 248.763 202.394L187.404 160.094C182.388 156.636 181.309 150.018 184.994 145.311Z" fill="#64DBFA"/>
</mask>
<g mask="url(#mask1_15_454)">
<path fill-rule="evenodd" clip-rule="evenodd" d="M179.676 56.3989C182.18 53.9392 188.595 54.1182 193.095 58.1526L263.22 121.014C267.72 125.048 267.883 131.742 263.584 135.965C259.284 140.188 252.15 140.341 247.65 136.306L182.18 68.7362C177.68 64.7018 175.376 60.6219 179.676 56.3989ZM187.189 153.625C190.946 149.81 195.732 150.167 200.749 153.625L262.107 195.924C267.123 199.382 268.202 206.001 264.517 210.707C260.832 215.414 253.778 216.426 248.762 212.968L190.946 165.085C185.93 161.627 184.059 158.035 187.189 153.625Z" fill="#64DBFA"/>
</g>
<path fill-rule="evenodd" clip-rule="evenodd" d="M255.435 1.0272e-06C269.267 1.59451e-06 280.48 10.5211 280.48 23.4996L280.48 251.446C280.48 264.424 269.267 274.945 255.435 274.945C241.604 274.945 230.391 264.424 230.391 251.446L230.391 23.4996C230.391 10.5211 241.604 4.59893e-07 255.435 1.0272e-06Z" fill="#BAF1FF"/>
<path fill-rule="evenodd" clip-rule="evenodd" d="M488.055 123.183C480.906 112.073 465.512 108.504 453.671 115.212L245.707 233.031C233.866 239.74 230.063 254.184 237.212 265.295C244.361 276.405 259.756 279.974 271.596 273.266L479.56 155.446C491.401 148.738 495.204 134.293 488.055 123.183Z" fill="#BAF1FF"/>
<path fill-rule="evenodd" clip-rule="evenodd" d="M22.9448 123.183C30.094 112.073 45.4884 108.504 57.3292 115.212L265.293 233.031C277.134 239.74 280.937 254.184 273.788 265.295C266.639 276.405 251.244 279.974 239.404 273.266L31.4396 155.446C19.5988 148.738 15.7956 134.293 22.9448 123.183Z" fill="#BAF1FF"/>
<mask id="mask2_15_454" style="mask-type:alpha" maskUnits="userSpaceOnUse" x="224" y="12" width="43" height="269">
<path fill-rule="evenodd" clip-rule="evenodd" d="M245.418 12.9248C257.175 12.9248 266.705 23.1762 266.705 35.8218L266.705 257.923C266.705 270.569 257.175 280.82 245.418 280.82C233.661 280.82 224.13 270.569 224.13 257.923L224.13 35.8218C224.13 23.1762 233.661 12.9248 245.418 12.9248Z" fill="#FA64EB"/>
</mask>
<g mask="url(#mask2_15_454)">
<path fill-rule="evenodd" clip-rule="evenodd" d="M255.436 0.000123098C269.268 0.000123665 280.48 10.5212 280.48 23.4997L280.48 251.446C280.48 264.424 269.268 274.945 255.436 274.945C241.604 274.945 230.391 264.424 230.391 251.446L230.391 23.4997C230.391 10.5212 241.604 0.00012253 255.436 0.000123098Z" fill="#64DBFA"/>
</g>
<path fill-rule="evenodd" clip-rule="evenodd" d="M403.879 85.0777C409.954 86.3487 413.781 92 412.427 97.7004L391.321 186.52C389.967 192.22 383.944 195.811 377.869 194.54C371.794 193.269 367.967 187.617 369.321 181.917L390.427 93.0977C391.781 87.3974 397.804 83.8067 403.879 85.0777ZM319.073 141.708C325.272 142.236 329.841 147.378 329.279 153.195L322.402 224.345C321.84 230.162 316.359 234.449 310.161 233.922C303.962 233.394 299.392 228.251 299.955 222.435L306.831 151.285C307.393 145.468 312.874 141.181 319.073 141.708Z" fill="#BAF1FF"/>
<mask id="mask3_15_454" style="mask-type:alpha" maskUnits="userSpaceOnUse" x="299" y="84" width="114" height="150">
<path fill-rule="evenodd" clip-rule="evenodd" d="M403.879 85.0777C409.954 86.3487 413.781 92 412.427 97.7004L391.321 186.52C389.967 192.22 383.944 195.811 377.869 194.54C371.794 193.269 367.967 187.617 369.321 181.917L390.427 93.0977C391.781 87.3974 397.804 83.8067 403.879 85.0777ZM319.073 141.708C325.272 142.236 329.841 147.378 329.279 153.195L322.402 224.345C321.84 230.162 316.359 234.449 310.161 233.922C303.962 233.394 299.392 228.251 299.955 222.435L306.831 151.285C307.393 145.468 312.874 141.181 319.073 141.708Z" fill="#64DBFA"/>
</mask>
<g mask="url(#mask3_15_454)">
<path fill-rule="evenodd" clip-rule="evenodd" d="M407.651 92.0675C411.19 92.8078 414.342 98.0528 412.988 103.753L393.76 196.685C392.406 202.385 386.383 205.976 380.308 204.705C374.233 203.434 370.406 197.783 371.76 192.082L395.876 99.8733C397.23 94.1729 401.576 90.7965 407.651 92.0675ZM314.29 150.985C320.551 152.16 321.445 157.544 320.883 163.36L317.766 233.057C317.204 238.873 311.723 243.161 305.524 242.633C299.325 242.106 294.756 236.963 295.318 231.147L304.898 160.972C305.46 155.156 308.029 150.985 314.29 150.985Z" fill="#64DBFA"/>
</g>
<path fill-rule="evenodd" clip-rule="evenodd" d="M107.121 85.0777C101.046 86.3487 97.2189 92 98.5734 97.7004L119.679 186.52C121.033 192.22 127.056 195.811 133.131 194.54C139.206 193.269 143.033 187.617 141.679 181.917L120.573 93.0977C119.219 87.3974 113.196 83.8067 107.121 85.0777ZM191.927 141.708C185.728 142.236 181.159 147.378 181.721 153.195L188.598 224.345C189.16 230.162 194.64 234.449 200.839 233.922C207.038 233.394 211.608 228.251 211.045 222.435L204.169 151.285C203.607 145.468 198.126 141.181 191.927 141.708Z" fill="#BAF1FF"/>
<path fill-rule="evenodd" clip-rule="evenodd" d="M487.205 122.685C494.517 133.702 490.927 148.195 479.186 155.056L272.98 275.564C261.239 282.425 245.794 279.057 238.481 268.041C231.169 257.024 234.759 242.531 246.5 235.67L452.706 115.162C464.447 108.3 479.892 111.669 487.205 122.685Z" fill="#10B1DC"/>
<mask id="mask4_15_454" style="mask-type:alpha" maskUnits="userSpaceOnUse" x="98" y="84" width="114" height="150">
<path fill-rule="evenodd" clip-rule="evenodd" d="M107.121 85.0777C101.046 86.3487 97.2189 92 98.5734 97.7004L119.679 186.52C121.033 192.22 127.056 195.811 133.131 194.54C139.206 193.269 143.033 187.617 141.679 181.917L120.573 93.0977C119.219 87.3974 113.196 83.8067 107.121 85.0777ZM191.927 141.708C185.728 142.236 181.159 147.378 181.721 153.195L188.598 224.345C189.16 230.162 194.641 234.449 200.839 233.922C207.038 233.394 211.608 228.251 211.045 222.435L204.169 151.285C203.607 145.468 198.126 141.181 191.927 141.708Z" fill="#64DBFA"/>
</mask>
<g mask="url(#mask4_15_454)">
<path fill-rule="evenodd" clip-rule="evenodd" d="M103.349 92.0675C99.8101 92.8078 96.6579 98.0528 98.0125 103.753L117.24 196.685C118.594 202.385 124.617 205.976 130.692 204.705C136.767 203.434 140.594 197.783 139.239 192.082L115.124 99.8733C113.77 94.1729 109.424 90.7965 103.349 92.0675ZM196.71 150.985C190.449 152.16 189.555 157.544 190.117 163.36L193.234 233.057C193.796 238.873 199.277 243.161 205.476 242.633C211.675 242.106 216.244 236.963 215.682 231.147L206.102 160.972C205.54 155.156 202.971 150.985 196.71 150.985Z" fill="#64DBFA"/>
</g>
<mask id="mask5_15_454" style="mask-type:alpha" maskUnits="userSpaceOnUse" x="223" y="112" width="252" height="156">
<path fill-rule="evenodd" clip-rule="evenodd" d="M471.83 121.681C477.827 131.169 473.291 144.09 461.699 150.541L258.105 263.828C246.513 270.278 232.254 267.815 226.257 258.327C220.26 248.838 224.796 235.917 236.388 229.467L439.983 116.179C451.575 109.729 465.833 112.192 471.83 121.681Z" fill="#FA64EB"/>
</mask>
<g mask="url(#mask5_15_454)">
<path fill-rule="evenodd" clip-rule="evenodd" d="M488.451 122.643C495.559 133.776 491.703 148.209 479.838 154.879L271.445 272.028C259.579 278.698 244.198 275.08 237.089 263.946C229.981 252.813 233.837 238.38 245.702 231.71L454.096 114.561C465.961 107.891 481.342 111.51 488.451 122.643Z" fill="#64DBFA"/>
</g>
<path fill-rule="evenodd" clip-rule="evenodd" d="M26.2061 210.825C24.5757 205.188 28.1236 199.379 34.1305 197.849L127.727 174.013C133.734 172.483 139.925 175.812 141.555 181.448C143.186 187.085 139.638 192.894 133.631 194.424L40.0347 218.261C34.0277 219.79 27.8365 216.461 26.2061 210.825ZM109.975 259.84C107.586 254.447 110.308 248.258 116.055 246.016L195.496 213.625C201.243 211.384 207.839 213.938 210.228 219.331C212.617 224.724 209.895 230.913 204.148 233.155L124.707 265.545C118.96 267.787 112.364 265.233 109.975 259.84Z" fill="#64DBFA"/>
<mask id="mask6_15_454" style="mask-type:alpha" maskUnits="userSpaceOnUse" x="26" y="128" width="251" height="158">
<path fill-rule="evenodd" clip-rule="evenodd" d="M29.5586 137.91C35.6354 128.467 49.9144 126.11 61.4515 132.646L264.083 247.444C275.62 253.98 280.047 266.934 273.97 276.378C267.893 285.822 253.614 288.179 242.077 281.643L39.4454 166.845C27.9082 160.309 23.4818 147.354 29.5586 137.91Z" fill="#FA64EB"/>
</mask>
<g mask="url(#mask6_15_454)">
<path fill-rule="evenodd" clip-rule="evenodd" d="M22.9449 123.183C30.0942 112.072 45.4886 108.504 57.3293 115.212L265.293 233.031C277.134 239.739 280.937 254.184 273.788 265.294C266.639 276.405 251.244 279.973 239.404 273.265L31.4397 155.446C19.599 148.738 15.7957 134.293 22.9449 123.183Z" fill="#64DBFA"/>
</g>
<path fill-rule="evenodd" clip-rule="evenodd" d="M107.121 426.922C101.046 425.651 97.2189 420 98.5734 414.3L119.679 325.48C121.033 319.78 127.056 316.189 133.131 317.46C139.206 318.731 143.033 324.383 141.679 330.083L120.573 418.902C119.219 424.602 113.196 428.193 107.121 426.922ZM191.927 370.292C185.728 369.764 181.159 364.621 181.721 358.805L188.598 287.655C189.16 281.838 194.64 277.551 200.839 278.078C207.038 278.606 211.608 283.748 211.045 289.565L204.169 360.715C203.607 366.532 198.126 370.819 191.927 370.292Z" fill="#64DBFA"/>
<path fill-rule="evenodd" clip-rule="evenodd" d="M255.435 512C269.267 512 280.48 501.479 280.48 488.5L280.48 260.554C280.48 247.576 269.267 237.055 255.435 237.055C241.604 237.055 230.391 247.576 230.391 260.554L230.391 488.5C230.391 501.479 241.604 512 255.435 512Z" fill="#10B1DC"/>
<path fill-rule="evenodd" clip-rule="evenodd" d="M488.055 388.817C480.906 399.927 465.512 403.496 453.671 396.788L245.707 278.969C233.866 272.26 230.063 257.815 237.212 246.705C244.361 235.595 259.756 232.026 271.596 238.734L479.56 356.553C491.401 363.262 495.204 377.706 488.055 388.817Z" fill="#10B1DC"/>
<path fill-rule="evenodd" clip-rule="evenodd" d="M333.709 464.081C329.409 468.304 322.275 468.457 317.775 464.422L247.65 401.561C243.15 397.526 242.987 390.833 247.286 386.61C251.586 382.387 258.72 382.234 263.22 386.268L333.345 449.13C337.845 453.164 338.008 459.858 333.709 464.081ZM325.877 366.689C322.191 371.395 315.138 372.408 310.122 368.95L248.763 326.65C243.747 323.193 242.668 316.574 246.353 311.867C250.038 307.161 257.092 306.148 262.108 309.606L323.467 351.906C328.483 355.364 329.562 361.982 325.877 366.689Z" fill="#10B1DC"/>
<mask id="mask7_15_454" style="mask-type:alpha" maskUnits="userSpaceOnUse" x="244" y="307" width="93" height="161">
<path fill-rule="evenodd" clip-rule="evenodd" d="M333.709 464.081C329.409 468.304 322.275 468.457 317.775 464.422L247.65 401.561C243.15 397.526 242.987 390.833 247.286 386.61C251.586 382.387 258.72 382.234 263.221 386.268L333.345 449.13C337.845 453.164 338.008 459.858 333.709 464.081ZM325.877 366.689C322.191 371.395 315.138 372.408 310.122 368.95L248.763 326.65C243.747 323.193 242.668 316.574 246.353 311.867C250.038 307.161 257.092 306.148 262.108 309.606L323.467 351.906C328.483 355.364 329.562 361.982 325.877 366.689Z" fill="#64DBFA"/>
</mask>
<g mask="url(#mask7_15_454)">
<path fill-rule="evenodd" clip-rule="evenodd" d="M331.195 455.601C328.69 458.061 322.276 457.882 317.775 453.847L247.651 390.986C243.151 386.952 242.988 380.258 247.287 376.035C251.587 371.812 258.721 371.659 263.221 375.694L328.69 443.264C333.191 447.298 335.494 451.378 331.195 455.601ZM321.803 358.078C318.047 361.893 312.419 360.948 307.403 357.49L248.763 316.076C243.747 312.618 242.669 305.999 246.354 301.293C250.039 296.586 257.093 295.574 262.109 299.032L317.42 345.153C322.436 348.611 324.934 353.668 321.803 358.078Z" fill="#64DBFA"/>
</g>
<path fill-rule="evenodd" clip-rule="evenodd" d="M484.41 300.876C485.538 306.62 481.49 312.134 475.369 313.193L379.993 329.687C373.872 330.745 367.995 326.947 366.867 321.204C365.739 315.46 369.786 309.946 375.908 308.887L471.284 292.393C477.405 291.335 483.282 295.133 484.41 300.876ZM395.706 249.772C397.612 255.332 394.354 261.288 388.428 263.077L315.947 284.952C310.021 286.74 303.673 283.683 301.767 278.123C299.861 272.564 303.12 266.607 309.045 264.818L381.527 242.943C387.452 241.155 393.8 244.212 395.706 249.772Z" fill="#10B1DC"/>
<mask id="mask8_15_454" style="mask-type:alpha" maskUnits="userSpaceOnUse" x="301" y="242" width="184" height="88">
<path fill-rule="evenodd" clip-rule="evenodd" d="M484.41 300.876C485.538 306.62 481.49 312.134 475.369 313.193L379.993 329.687C373.872 330.745 367.995 326.947 366.867 321.204C365.739 315.46 369.786 309.946 375.908 308.887L471.284 292.393C477.405 291.335 483.282 295.133 484.41 300.876ZM395.706 249.772C397.612 255.332 394.354 261.288 388.428 263.077L315.947 284.952C310.021 286.74 303.673 283.683 301.767 278.123C299.861 272.564 303.12 266.607 309.045 264.818L381.527 242.943C387.452 241.155 393.8 244.212 395.706 249.772Z" fill="#64DBFA"/>
</mask>
<g mask="url(#mask8_15_454)">
<path fill-rule="evenodd" clip-rule="evenodd" d="M475.613 297.82C476.27 301.165 472.358 305.938 466.236 306.996L370.86 323.49C364.739 324.549 358.862 320.751 357.734 315.007C356.606 309.264 360.654 303.75 366.775 302.691L463.49 292.496C469.612 291.437 474.485 292.076 475.613 297.82ZM385.883 247.824C386.977 252.916 382.864 256.642 376.938 258.43L306.814 278.756C300.889 280.544 294.54 277.487 292.635 271.927C290.729 266.367 293.987 260.41 299.912 258.622L372.152 243.584C378.077 241.796 383.908 242.86 385.883 247.824Z" fill="#64DBFA"/>
</g>
<path fill-rule="evenodd" clip-rule="evenodd" d="M22.9448 388.817C30.094 399.927 45.4884 403.496 57.3292 396.788L265.293 278.969C277.134 272.26 280.937 257.815 273.788 246.705C266.639 235.595 251.244 232.026 239.404 238.734L31.4396 356.553C19.5988 363.262 15.7956 377.706 22.9448 388.817Z" fill="#64DBFA"/>
<path fill-rule="evenodd" clip-rule="evenodd" d="M177.162 464.081C181.462 468.304 188.596 468.457 193.096 464.422L263.221 401.561C267.721 397.526 267.884 390.833 263.584 386.61C259.285 382.387 252.151 382.234 247.65 386.268L177.526 449.13C173.025 453.164 172.863 459.858 177.162 464.081ZM184.994 366.689C188.68 371.395 195.733 372.408 200.749 368.95L262.108 326.65C267.124 323.193 268.203 316.574 264.518 311.867C260.832 307.161 253.779 306.148 248.763 309.606L187.404 351.906C182.388 355.364 181.309 361.982 184.994 366.689Z" fill="#10B1DC"/>
<mask id="mask9_15_454" style="mask-type:alpha" maskUnits="userSpaceOnUse" x="174" y="307" width="93" height="161">
<path fill-rule="evenodd" clip-rule="evenodd" d="M177.162 464.081C181.462 468.304 188.596 468.457 193.096 464.422L263.22 401.561C267.721 397.526 267.884 390.833 263.584 386.61C259.285 382.387 252.151 382.234 247.65 386.268L177.526 449.13C173.025 453.164 172.862 459.858 177.162 464.081ZM184.994 366.689C188.679 371.395 195.733 372.408 200.749 368.95L262.108 326.65C267.124 323.193 268.203 316.574 264.518 311.867C260.832 307.161 253.779 306.148 248.763 309.606L187.404 351.906C182.388 355.364 181.309 361.982 184.994 366.689Z" fill="#64DBFA"/>
</mask>
<g mask="url(#mask9_15_454)">
<path fill-rule="evenodd" clip-rule="evenodd" d="M173.82 459.418C176.325 461.877 182.739 461.698 187.24 457.664L257.364 394.803C261.865 390.768 262.028 384.074 257.728 379.852C253.428 375.629 246.295 375.476 241.794 379.51L176.325 447.08C171.824 451.115 169.521 455.195 173.82 459.418ZM181.334 362.192C185.09 366.007 189.877 365.65 194.893 362.192L256.252 319.892C261.268 316.434 262.347 309.816 258.661 305.109C254.976 300.403 247.922 299.39 242.906 302.848L185.09 350.732C180.074 354.19 178.203 357.782 181.334 362.192Z" fill="#64DBFA"/>
</g>
<mask id="mask10_15_454" style="mask-type:alpha" maskUnits="userSpaceOnUse" x="224" y="231" width="43" height="269">
<path fill-rule="evenodd" clip-rule="evenodd" d="M245.418 499.075C257.175 499.075 266.705 488.824 266.705 476.178L266.705 254.077C266.705 241.431 257.175 231.18 245.418 231.18C233.661 231.18 224.13 241.431 224.13 254.077L224.13 476.178C224.13 488.824 233.661 499.075 245.418 499.075Z" fill="#FA64EB"/>
</mask>
<g mask="url(#mask10_15_454)">
<path fill-rule="evenodd" clip-rule="evenodd" d="M255.436 512C269.268 512 280.48 501.479 280.48 488.5L280.48 260.554C280.48 247.576 269.268 237.055 255.436 237.055C241.604 237.055 230.391 247.576 230.391 260.554L230.391 488.5C230.391 501.479 241.604 512 255.436 512Z" fill="#64DBFA"/>
</g>
<path fill-rule="evenodd" clip-rule="evenodd" d="M403.879 426.922C409.954 425.651 413.781 420 412.427 414.3L391.321 325.48C389.967 319.78 383.944 316.189 377.869 317.46C371.794 318.731 367.967 324.383 369.321 330.083L390.427 418.902C391.781 424.602 397.804 428.193 403.879 426.922ZM319.073 370.292C325.272 369.764 329.841 364.621 329.279 358.805L322.402 287.655C321.84 281.838 316.359 277.551 310.161 278.078C303.962 278.606 299.392 283.748 299.955 289.565L306.831 360.715C307.393 366.532 312.874 370.819 319.073 370.292Z" fill="#10B1DC"/>
<mask id="mask11_15_454" style="mask-type:alpha" maskUnits="userSpaceOnUse" x="299" y="278" width="114" height="150">
<path fill-rule="evenodd" clip-rule="evenodd" d="M403.879 426.922C409.954 425.651 413.781 420 412.427 414.3L391.321 325.48C389.967 319.78 383.944 316.189 377.869 317.46C371.794 318.731 367.967 324.383 369.321 330.083L390.427 418.902C391.781 424.602 397.804 428.193 403.879 426.922ZM319.073 370.292C325.272 369.764 329.841 364.621 329.279 358.805L322.402 287.655C321.84 281.838 316.359 277.551 310.161 278.078C303.962 278.606 299.392 283.748 299.955 289.565L306.831 360.715C307.393 366.532 312.874 370.819 319.073 370.292Z" fill="#64DBFA"/>
</mask>
<g mask="url(#mask11_15_454)">
<path fill-rule="evenodd" clip-rule="evenodd" d="M407.651 419.932C411.19 419.192 414.342 413.947 412.988 408.247L393.76 315.315C392.406 309.615 386.383 306.024 380.308 307.295C374.233 308.566 370.406 314.217 371.76 319.918L395.876 412.127C397.23 417.827 401.576 421.203 407.651 419.932ZM314.29 361.015C320.551 359.84 321.445 354.456 320.883 348.64L317.766 278.943C317.204 273.127 311.723 268.839 305.524 269.367C299.325 269.894 294.756 275.037 295.318 280.853L304.898 351.028C305.46 356.844 308.029 361.015 314.29 361.015Z" fill="#64DBFA"/>
</g>
<mask id="mask12_15_454" style="mask-type:alpha" maskUnits="userSpaceOnUse" x="234" y="226" width="251" height="158">
<path fill-rule="evenodd" clip-rule="evenodd" d="M481.441 374.09C475.365 383.533 461.086 385.89 449.548 379.354L246.917 264.556C235.38 258.02 230.953 245.066 237.03 235.622C243.107 226.178 257.386 223.821 268.923 230.357L471.555 345.155C483.092 351.691 487.518 364.646 481.441 374.09Z" fill="#FA64EB"/>
</mask>
<g mask="url(#mask12_15_454)">
<path fill-rule="evenodd" clip-rule="evenodd" d="M488.055 388.817C480.906 399.928 465.511 403.496 453.671 396.788L245.707 278.969C233.866 272.261 230.063 257.816 237.212 246.705C244.361 235.595 259.755 232.026 271.596 238.735L479.56 356.554C491.401 363.262 495.204 377.707 488.055 388.817Z" fill="#64DBFA"/>
</g>
<path fill-rule="evenodd" clip-rule="evenodd" d="M26.2061 301.175C24.5757 306.812 28.1236 312.621 34.1305 314.151L127.727 337.987C133.734 339.517 139.925 336.188 141.555 330.552C143.186 324.915 139.638 319.106 133.631 317.576L40.0347 293.739C34.0277 292.21 27.8365 295.539 26.2061 301.175ZM109.975 252.16C107.586 257.553 110.308 263.742 116.055 265.984L195.496 298.375C201.243 300.616 207.839 298.062 210.228 292.669C212.617 287.276 209.895 281.087 204.148 278.845L124.707 246.455C118.96 244.213 112.364 246.767 109.975 252.16Z" fill="#64DBFA"/>
</svg>