<svg width="30" height="26" viewBox="0 0 30 26" fill="none" xmlns="http://www.w3.org/2000/svg">
<path fill-rule="evenodd" clip-rule="evenodd" d="M7.99622 14.71L1.48714 12.2579C0.825889 12.0081 0.820717 11.066 1.47938 10.8094L28.1916 0.408656C28.758 0.187835 29.3426 0.688305 29.2184 1.28853L24.425 24.5617C24.312 25.1116 23.674 25.3605 23.2232 25.0297L16.6796 20.2348C16.2821 19.944 15.7407 19.9594 15.3605 20.2723L11.7318 23.2572C11.3111 23.6051 10.6766 23.4115 10.5154 22.8872L7.99622 14.71ZM22.8297 5.49782L10.109 13.4048C9.621 13.7091 9.39168 14.3034 9.54945 14.8593L10.9245 19.7369C11.022 20.0822 11.5194 20.0473 11.5668 19.6901L11.9246 17.0155C11.9919 16.5116 12.2298 16.0478 12.5988 15.7008L23.0969 5.85165C23.2935 5.66749 23.0581 5.35544 22.8297 5.49782Z" fill="black"/>
</svg>
