<svg width="33" height="27" viewBox="0 0 33 27" fill="none" xmlns="http://www.w3.org/2000/svg">
<path d="M32.2646 3.68236C31.0983 4.19851 29.8481 4.54775 28.5335 4.70439C29.8755 3.90235 30.9028 2.62952 31.3899 1.11874C30.1311 1.86172 28.7419 2.40098 27.2609 2.69286C26.0758 1.43117 24.39 0.644531 22.5197 0.644531C18.9318 0.644531 16.0223 3.54883 16.0223 7.12764C16.0223 7.63608 16.0797 8.13169 16.1903 8.60589C10.7914 8.33541 6.00471 5.75295 2.80015 1.83005C2.24019 2.78616 1.92205 3.89978 1.92205 5.08957C1.92205 7.33906 3.06941 9.32491 4.81104 10.4865C3.746 10.4505 2.74527 10.1586 1.86803 9.67243V9.75375C1.86803 12.8943 4.10873 15.5161 7.07918 16.1127C6.53466 16.2582 5.96097 16.3396 5.36757 16.3396C4.94738 16.3396 4.54178 16.2985 4.14389 16.2189C4.9714 18.7971 7.36988 20.6716 10.2117 20.723C7.98901 22.4615 5.18749 23.4946 2.14329 23.4946C1.61849 23.4946 1.10226 23.4629 0.59375 23.4056C3.46902 25.2493 6.88281 26.3236 10.5521 26.3236C22.5034 26.3236 29.0369 16.4423 29.0369 7.87318L29.0146 7.03348C30.2914 6.12444 31.3959 4.98258 32.2646 3.68236Z" fill="black"/>
</svg>