<svg width="30" height="21" viewBox="0 0 30 21" fill="none" xmlns="http://www.w3.org/2000/svg">
<path d="M14.9907 0C14.9907 0 5.61447 8.70102e-06 3.26117 0.611665C2.00112 0.963824 0.963576 2.00165 0.611505 3.28056C1.39321e-05 5.63449 0 10.5093 0 10.5093C0 10.5093 1.39321e-05 15.4026 0.611505 17.7194C0.963576 18.9983 1.98259 20.0176 3.26117 20.3698C5.63301 21 14.9907 21 14.9907 21C14.9907 21 24.3855 21 26.7388 20.3883C28.0174 20.0362 29.0364 19.0354 29.3699 17.738C29.9999 15.4026 29.9999 10.5278 29.9999 10.5278C29.9999 10.5278 30.0185 5.63449 29.3699 3.28056C29.0364 2.00165 28.0174 0.982383 26.7388 0.648753C24.3855 2.96401e-05 14.9907 0 14.9907 0ZM12.0073 6.00538L19.8086 10.5093L12.0073 14.9946V6.00538Z" fill="#FF0000"/>
</svg>